<svg width="27" height="17" viewBox="0 0 27 17" fill="none" xmlns="http://www.w3.org/2000/svg">
<path d="M12.474 0.556V3.57H8.382V16H4.62V3.57H0.528V0.556H12.474ZM21.27 16.154C20.1407 16.154 19.1287 15.9707 18.234 15.604C17.3394 15.2373 16.6207 14.6947 16.078 13.976C15.55 13.2573 15.2714 12.392 15.242 11.38H19.246C19.3047 11.952 19.5027 12.392 19.84 12.7C20.1774 12.9933 20.6174 13.14 21.16 13.14C21.7174 13.14 22.1574 13.0153 22.48 12.766C22.8027 12.502 22.964 12.1427 22.964 11.688C22.964 11.3067 22.832 10.9913 22.568 10.742C22.3187 10.4927 22.0034 10.2873 21.622 10.126C21.2554 9.96467 20.7274 9.78133 20.038 9.576C19.0407 9.268 18.2267 8.96 17.596 8.652C16.9654 8.344 16.4227 7.88933 15.968 7.288C15.5134 6.68667 15.286 5.902 15.286 4.934C15.286 3.49667 15.8067 2.37467 16.848 1.568C17.8894 0.746666 19.246 0.336 20.918 0.336C22.6194 0.336 23.9907 0.746666 25.032 1.568C26.0734 2.37467 26.6307 3.504 26.704 4.956H22.634C22.6047 4.45733 22.4214 4.06867 22.084 3.79C21.7467 3.49667 21.314 3.35 20.786 3.35C20.3314 3.35 19.9647 3.47467 19.686 3.724C19.4074 3.95867 19.268 4.30333 19.268 4.758C19.268 5.25667 19.5027 5.64533 19.972 5.924C20.4414 6.20267 21.1747 6.50333 22.172 6.826C23.1694 7.16333 23.976 7.486 24.592 7.794C25.2227 8.102 25.7654 8.54933 26.22 9.136C26.6747 9.72267 26.902 10.478 26.902 11.402C26.902 12.282 26.6747 13.0813 26.22 13.8C25.78 14.5187 25.1347 15.0907 24.284 15.516C23.4334 15.9413 22.4287 16.154 21.27 16.154Z" fill="white"/>
</svg>
